# xmcd CD database file
#
# Track frame offsets:
#	187
#	31600
#	65630
#	102557
#	152190
#	186547
#	235977
#	264307
#
# Disc length: 3862 seconds
#
# Revision: 0
# Processed by: cddbd v1.4PL0 Copyright (c) Steve Scherf et al.
# Submitted via: CDex 1.50
#
DISCID=6c0f1408
DTITLE=Hampton Hawes Quartet - All Night Session Disc 2
DYEAR=1956
DGENRE=Jazz
TTITLE0=Will You Still Be Mine
TTITLE1=April In Paris
TTITLE2=Blue'n Boogie
TTITLE3=Do Nothin' Till You Hear From Me
TTITLE4=Blues #3
TTITLE5=Between The Devil And The Deep Blue Sea
TTITLE6=Blues #4
TTITLE7=Blues Of A Sort
EXTD=YEAR: 1956
EXTT0=
EXTT1=
EXTT2=
EXTT3=
EXTT4=
EXTT5=
EXTT6=
EXTT7=
PLAYORDER=
